<mxfile host="app.diagrams.net" modified="2023-08-03T03:41:57.944Z" agent="Mozilla/5.0 (Windows NT 10.0; Win64; x64) AppleWebKit/537.36 (KHTML, like Gecko) Chrome/115.0.0.0 Safari/537.36" etag="BbwX82Wr2HoQEr-KG8ld" version="21.6.5" type="device">
  <diagram name="Page-1" id="BWHNkNiEs-IkO5fIKNXb">
    <mxGraphModel dx="1290" dy="605" grid="1" gridSize="10" guides="1" tooltips="1" connect="1" arrows="1" fold="1" page="1" pageScale="1" pageWidth="850" pageHeight="1100" math="0" shadow="0">
      <root>
        <mxCell id="0" />
        <mxCell id="1" parent="0" />
        <mxCell id="5qmP-6OTH-ESlq7DOyJe-1" value="START" style="rounded=1;whiteSpace=wrap;html=1;" parent="1" vertex="1">
          <mxGeometry x="240" y="50" width="120" height="60" as="geometry" />
        </mxCell>
        <mxCell id="5qmP-6OTH-ESlq7DOyJe-2" value="STOP" style="rounded=1;whiteSpace=wrap;html=1;" parent="1" vertex="1">
          <mxGeometry x="450" y="630" width="120" height="60" as="geometry" />
        </mxCell>
        <mxCell id="5qmP-6OTH-ESlq7DOyJe-3" value="&lt;div&gt;קלוט מספר עד אשר ייקלט מספר בין 0 ל - 1,000&lt;/div&gt;&lt;div&gt;הדפס כמה ספרות יש למספר&lt;/div&gt;" style="text;html=1;strokeColor=none;fillColor=none;align=center;verticalAlign=middle;whiteSpace=wrap;rounded=0;" parent="1" vertex="1">
          <mxGeometry x="425" y="50" width="310" height="100" as="geometry" />
        </mxCell>
        <mxCell id="5qmP-6OTH-ESlq7DOyJe-23" style="edgeStyle=orthogonalEdgeStyle;rounded=0;orthogonalLoop=1;jettySize=auto;html=1;" parent="1" source="5qmP-6OTH-ESlq7DOyJe-22" target="5qmP-6OTH-ESlq7DOyJe-2" edge="1">
          <mxGeometry relative="1" as="geometry" />
        </mxCell>
        <mxCell id="5qmP-6OTH-ESlq7DOyJe-22" value="&lt;div style=&quot;color: rgb(204, 204, 204); background-color: rgb(31, 31, 31); font-family: Consolas, &amp;quot;Courier New&amp;quot;, monospace; font-size: 14px; line-height: 19px;&quot;&gt;&lt;div style=&quot;line-height: 19px;&quot;&gt;&lt;div style=&quot;line-height: 19px;&quot;&gt;Number Digits&lt;br&gt;&lt;/div&gt;&lt;/div&gt;&lt;/div&gt;" style="shape=document;whiteSpace=wrap;html=1;boundedLbl=1;" parent="1" vertex="1">
          <mxGeometry x="450" y="330" width="120" height="70" as="geometry" />
        </mxCell>
        <mxCell id="NqOy1r5sEnn0rG29aLDs-4" value="" style="edgeStyle=orthogonalEdgeStyle;rounded=0;orthogonalLoop=1;jettySize=auto;html=1;" edge="1" parent="1" source="5qmP-6OTH-ESlq7DOyJe-1">
          <mxGeometry relative="1" as="geometry">
            <mxPoint x="230" y="110" as="sourcePoint" />
            <mxPoint x="300" y="160" as="targetPoint" />
          </mxGeometry>
        </mxCell>
        <mxCell id="NqOy1r5sEnn0rG29aLDs-23" value="" style="edgeStyle=orthogonalEdgeStyle;rounded=0;orthogonalLoop=1;jettySize=auto;html=1;" edge="1" parent="1">
          <mxGeometry relative="1" as="geometry">
            <mxPoint x="300" y="240" as="sourcePoint" />
            <mxPoint x="300" y="305" as="targetPoint" />
            <Array as="points">
              <mxPoint x="300" y="270" />
              <mxPoint x="300" y="270" />
            </Array>
          </mxGeometry>
        </mxCell>
        <mxCell id="NqOy1r5sEnn0rG29aLDs-25" value="" style="edgeStyle=orthogonalEdgeStyle;rounded=0;orthogonalLoop=1;jettySize=auto;html=1;exitX=1;exitY=0.5;exitDx=0;exitDy=0;" edge="1" parent="1" source="NqOy1r5sEnn0rG29aLDs-27" target="5qmP-6OTH-ESlq7DOyJe-22">
          <mxGeometry relative="1" as="geometry">
            <mxPoint x="395" y="365" as="sourcePoint" />
          </mxGeometry>
        </mxCell>
        <mxCell id="NqOy1r5sEnn0rG29aLDs-29" value="" style="edgeStyle=orthogonalEdgeStyle;rounded=0;orthogonalLoop=1;jettySize=auto;html=1;" edge="1" parent="1" source="NqOy1r5sEnn0rG29aLDs-27" target="NqOy1r5sEnn0rG29aLDs-28">
          <mxGeometry relative="1" as="geometry" />
        </mxCell>
        <mxCell id="NqOy1r5sEnn0rG29aLDs-27" value="&lt;div style=&quot;color: rgb(204, 204, 204); background-color: rgb(31, 31, 31); font-family: Consolas, &amp;quot;Courier New&amp;quot;, monospace; font-size: 14px; line-height: 19px;&quot;&gt;(&lt;span style=&quot;color: #9cdcfe;&quot;&gt;number&lt;/span&gt;&lt;span style=&quot;color: #d4d4d4;&quot;&gt; &amp;lt;= &lt;/span&gt;&lt;span style=&quot;color: #b5cea8;&quot;&gt;0&lt;/span&gt;&lt;span style=&quot;color: #d4d4d4;&quot;&gt; || &lt;/span&gt;&lt;span style=&quot;color: #9cdcfe;&quot;&gt;number&lt;/span&gt;&lt;span style=&quot;color: #d4d4d4;&quot;&gt; &amp;gt; &lt;/span&gt;&lt;span style=&quot;color: #b5cea8;&quot;&gt;1001&lt;/span&gt;&lt;span style=&quot;color: #d4d4d4;&quot;&gt;)&lt;/span&gt;&lt;/div&gt;" style="ellipse;whiteSpace=wrap;html=1;aspect=fixed;" vertex="1" parent="1">
          <mxGeometry x="240" y="305" width="120" height="120" as="geometry" />
        </mxCell>
        <mxCell id="NqOy1r5sEnn0rG29aLDs-33" value="" style="edgeStyle=orthogonalEdgeStyle;rounded=0;orthogonalLoop=1;jettySize=auto;html=1;" edge="1" parent="1" source="NqOy1r5sEnn0rG29aLDs-28" target="NqOy1r5sEnn0rG29aLDs-31">
          <mxGeometry relative="1" as="geometry" />
        </mxCell>
        <mxCell id="NqOy1r5sEnn0rG29aLDs-28" value="number" style="shape=card;whiteSpace=wrap;html=1;" vertex="1" parent="1">
          <mxGeometry x="260" y="460" width="80" height="80" as="geometry" />
        </mxCell>
        <mxCell id="NqOy1r5sEnn0rG29aLDs-30" value="number" style="shape=card;whiteSpace=wrap;html=1;" vertex="1" parent="1">
          <mxGeometry x="260" y="160" width="80" height="80" as="geometry" />
        </mxCell>
        <mxCell id="NqOy1r5sEnn0rG29aLDs-36" value="" style="edgeStyle=orthogonalEdgeStyle;rounded=0;orthogonalLoop=1;jettySize=auto;html=1;" edge="1" parent="1" source="NqOy1r5sEnn0rG29aLDs-31" target="NqOy1r5sEnn0rG29aLDs-35">
          <mxGeometry relative="1" as="geometry" />
        </mxCell>
        <mxCell id="NqOy1r5sEnn0rG29aLDs-31" value="&lt;div style=&quot;color: rgb(204, 204, 204); background-color: rgb(31, 31, 31); font-family: Consolas, &amp;quot;Courier New&amp;quot;, monospace; font-size: 14px; line-height: 19px;&quot;&gt;Please enter a POSITIVE number between 0 to 1,000&lt;/div&gt;" style="shape=document;whiteSpace=wrap;html=1;boundedLbl=1;" vertex="1" parent="1">
          <mxGeometry x="210" y="570" width="180" height="80" as="geometry" />
        </mxCell>
        <mxCell id="NqOy1r5sEnn0rG29aLDs-32" value="" style="shape=link;html=1;rounded=0;width=9;" edge="1" parent="1" source="NqOy1r5sEnn0rG29aLDs-35">
          <mxGeometry width="100" relative="1" as="geometry">
            <mxPoint x="250" y="680" as="sourcePoint" />
            <mxPoint x="350" y="680" as="targetPoint" />
          </mxGeometry>
        </mxCell>
        <mxCell id="NqOy1r5sEnn0rG29aLDs-37" value="" style="shape=link;html=1;rounded=0;width=9;" edge="1" parent="1" target="NqOy1r5sEnn0rG29aLDs-35">
          <mxGeometry width="100" relative="1" as="geometry">
            <mxPoint x="250" y="680" as="sourcePoint" />
            <mxPoint x="350" y="680" as="targetPoint" />
          </mxGeometry>
        </mxCell>
        <mxCell id="NqOy1r5sEnn0rG29aLDs-35" value="" style="shape=waypoint;sketch=0;size=6;pointerEvents=1;points=[];fillColor=default;resizable=0;rotatable=0;perimeter=centerPerimeter;snapToPoint=1;" vertex="1" parent="1">
          <mxGeometry x="290" y="670" width="20" height="20" as="geometry" />
        </mxCell>
      </root>
    </mxGraphModel>
  </diagram>
</mxfile>
